<svg xmlns="http://www.w3.org/2000/svg" viewBox="0 0 444 94"><defs><style>.a{fill:none;stroke:#429993;stroke-miterlimit:10;stroke-width:1.3px;}.b{fill:#26484a;}</style></defs><title>Artboard 5</title><path class="a" d="M39.73,18.5H28.85V90.56H18.34V18.5H8.08V7.74H39.73Z"/><path class="a" d="M80,90.56H48.38V7.74H78.91V18.5H58.76V39.76H72.23v11H58.76v29H80Z"/><path class="a" d="M126.49,31q-.12,15.08-9.64,20.15l9.4,39.43H115.62L107,51.87h-5.81V90.56H90.77V7.74H107a18.39,18.39,0,0,1,14,6.06Q126.62,19.86,126.49,31Zm-10.75-.25q0-6.3-2.53-9.27a8.42,8.42,0,0,0-6.74-3h-5.31V41.24h6.18A8.51,8.51,0,0,0,113.52,38,11.52,11.52,0,0,0,115.74,30.73Z"/><path class="a" d="M175.32,31q-.13,15.08-9.64,20.15l9.39,39.43H164.44l-8.65-38.69H150V90.56H139.6V7.74h16.19a18.39,18.39,0,0,1,14,6.06Q175.44,19.86,175.32,31Zm-10.76-.25q0-6.3-2.53-9.27a8.42,8.42,0,0,0-6.74-3H150V41.24h6.18A8.51,8.51,0,0,0,162.34,38,11.52,11.52,0,0,0,164.56,30.73Z"/><path class="a" d="M201,90.56H190.64V7.74H201Z"/><path class="a" d="M267.28,90.56H235.63V7.74h30.53V18.5H246V39.76h13.47v11H246v29h21.26Z"/><path class="a" d="M311.28,66.45q0,12.74-5.19,18.42a17.13,17.13,0,0,1-13.23,5.69H275.68V7.74h16.69a15.33,15.33,0,0,1,12.54,5.69q4.63,5.68,4.64,16.44t-5.19,16.68Q311.28,54.1,311.28,66.45ZM299.41,29.37a14.46,14.46,0,0,0-1.73-7.47,6.64,6.64,0,0,0-4.82-3.4h-6.92V41.12h6.8a6.1,6.1,0,0,0,5.06-3.71A18.27,18.27,0,0,0,299.41,29.37Zm1.24,37.08a17.79,17.79,0,0,0-2-9.7c-1.53-2.67-3.48-4-5.87-4h-6.8V79.8H293q3.21-.24,5.37-3.77C299.8,73.69,300.57,70.49,300.65,66.45Z"/><path class="a" d="M351.32,90.56H319.68V7.74h30.53V18.5H330.06V39.76h13.48v11H330.06v29h21.26Z"/><path class="a" d="M397.8,31q-.14,15.08-9.64,20.15l9.39,39.43H386.92l-8.65-38.69h-5.81V90.56H362.08V7.74h16.19a18.41,18.41,0,0,1,14,6.06Q397.92,19.86,397.8,31ZM387,30.73q0-6.3-2.53-9.27a8.4,8.4,0,0,0-6.74-3h-5.31V41.24h6.18A8.49,8.49,0,0,0,384.82,38,11.52,11.52,0,0,0,387,30.73Z"/><path class="a" d="M440.19,18.5H429.32V90.56H418.81V18.5H408.55V7.74h31.64Z"/><path class="b" d="M35.09,14H24.21V86.07H13.71V14H3.45V3.25H35.09Z"/><path class="b" d="M75.38,86.07H43.74V3.25H74.27V14H54.13V35.27H67.6v11H54.13v29H75.38Z"/><path class="b" d="M121.86,26.49q-.14,15.09-9.64,20.15l9.39,39.43H111l-8.65-38.69H96.52V86.07H86.14V3.25h16.19a18.39,18.39,0,0,1,14,6.06Q122,15.37,121.86,26.49Zm-10.76-.25q0-6.3-2.53-9.27a8.45,8.45,0,0,0-6.74-3H96.52V36.75h6.18a8.49,8.49,0,0,0,6.18-3.21A11.52,11.52,0,0,0,111.1,26.24Z"/><path class="b" d="M170.68,26.49q-.12,15.09-9.64,20.15l9.39,39.43H159.8l-8.65-38.69h-5.81V86.07H135V3.25h16.19a18.41,18.41,0,0,1,14,6.06Q170.81,15.37,170.68,26.49Zm-10.75-.25q0-6.3-2.54-9.27a8.43,8.43,0,0,0-6.73-3h-5.32V36.75h6.18a8.49,8.49,0,0,0,6.18-3.21A11.53,11.53,0,0,0,159.93,26.24Z"/><path class="b" d="M196.39,86.07H186V3.25h10.39Z"/><path class="b" d="M262.64,86.07H231V3.25h30.53V14H241.38V35.27h13.47v11H241.38v29h21.26Z"/><path class="b" d="M306.64,62q0,12.72-5.19,18.41a17.13,17.13,0,0,1-13.23,5.69H271V3.25h16.69a15.33,15.33,0,0,1,12.54,5.69q4.64,5.69,4.64,16.44t-5.19,16.69Q306.64,49.6,306.64,62ZM294.78,24.89A14.38,14.38,0,0,0,293,17.41a6.64,6.64,0,0,0-4.82-3.4H281.3V36.63h6.8a6.1,6.1,0,0,0,5.07-3.71A18.4,18.4,0,0,0,294.78,24.89ZM296,62a17.65,17.65,0,0,0-2-9.71q-2.28-4-5.87-4h-6.8V75.31h7.05c2.14-.16,3.93-1.42,5.37-3.76S295.93,66,296,62Z"/><path class="b" d="M346.69,86.07H315V3.25h30.54V14H325.43V35.27H338.9v11H325.43v29h21.26Z"/><path class="b" d="M393.16,26.49q-.12,15.09-9.64,20.15l9.39,39.43H382.28l-8.65-38.69h-5.81V86.07H357.44V3.25h16.19a18.41,18.41,0,0,1,14,6.06Q393.29,15.37,393.16,26.49Zm-10.75-.25c0-4.2-.85-7.29-2.53-9.27a8.46,8.46,0,0,0-6.74-3h-5.32V36.75H374a8.49,8.49,0,0,0,6.18-3.21A11.47,11.47,0,0,0,382.41,26.24Z"/><path class="b" d="M435.55,14H424.68V86.07H414.17V14H403.91V3.25h31.64Z"/></svg>